# xmcd
#
# Track frame offsets:
# 150
# 19456
# 35545
# 49130
# 60021
# 73349
# 88391
# 100409
# 109132
# 125428
# 137493
# 145818
# 164554
# 182878
# 194279
# 207772
# 219893
# 238196
# 253956
# 268184
#
# Disc length: 3788 seconds
#
#
# Revision: 0
# Processed by: cddbd v1.5.1PL0 Copyright (c) Steve Scherf et al.
# Submitted via: FreeRIP 2.51 
#
DISCID=380eca14
DTITLE=Gleydson Rodrigues - As 20 Mais
DYEAR=2003
DGENRE=Country
TTITLE0=Feliz
TTITLE1=Boca a Boca
TTITLE2=Prenda Minha
TTITLE3=Vai Jotinha
TTITLE4=Da Da Da
TTITLE5=Melô do Sapo
TTITLE6=Arapuca
TTITLE7=Sabao Cra Cra
TTITLE8=Fuscao Preto
TTITLE9=Pula Pula do Rodeio
TTITLE10=Aonde a Vaca Vai
TTITLE11=Funk do Barretão
TTITLE12=Potu Porri
TTITLE13=Vaquinha Julieta
TTITLE14=Rodeio e Verao
TTITLE15=Carnaval Sertanejo
TTITLE16=Bailão do Gleydson
TTITLE17=Caldo de Cana
TTITLE18=Vai de roda
TTITLE19=Vagabundo
EXTD=
EXTT0=
EXTT1=
EXTT2=
EXTT3=
EXTT4=
EXTT5=
EXTT6=
EXTT7=
EXTT8=
EXTT9=
EXTT10=
EXTT11=
EXTT12=
EXTT13=
EXTT14=
EXTT15=
EXTT16=
EXTT17=
EXTT18=
EXTT19=
PLAYORDER=
